<svg xmlns="http://www.w3.org/2000/svg" xmlns:xlink="http://www.w3.org/1999/xlink" width="500" zoomAndPan="magnify" viewBox="0 0 375 374.999991" height="500" preserveAspectRatio="xMidYMid meet" version="1.0"><defs><clipPath id="14b1e7c958"><path d="M 134 156 L 251.609375 156 L 251.609375 228 L 134 228 Z M 134 156 " clip-rule="nonzero"/></clipPath><clipPath id="116dc528fc"><path d="M 123.359375 138.433594 L 222 138.433594 L 222 236.683594 L 123.359375 236.683594 Z M 123.359375 138.433594 " clip-rule="nonzero"/></clipPath></defs><g clip-path="url(#14b1e7c958)"><path fill="#3c6ca8" d="M 154.824219 160.902344 C 154.851562 160.882812 154.878906 160.859375 154.910156 160.835938 C 154.925781 160.828125 154.9375 160.816406 154.953125 160.804688 C 154.96875 160.792969 154.984375 160.785156 155 160.773438 C 155.066406 160.730469 155.132812 160.683594 155.203125 160.636719 C 155.488281 160.453125 155.828125 160.246094 156.21875 160.074219 C 156.605469 159.894531 157.035156 159.738281 157.480469 159.625 C 157.925781 159.507812 158.390625 159.4375 158.839844 159.40625 C 159.292969 159.375 159.730469 159.390625 160.136719 159.429688 C 160.539062 159.472656 160.910156 159.539062 161.234375 159.609375 C 161.558594 159.675781 161.832031 159.757812 162.058594 159.800781 C 162.511719 159.898438 162.886719 159.972656 163.214844 160.015625 C 163.296875 160.023438 163.378906 160.035156 163.453125 160.039062 C 163.492188 160.042969 163.53125 160.042969 163.570312 160.042969 C 163.605469 160.046875 163.640625 160.046875 163.679688 160.046875 C 163.75 160.050781 163.820312 160.046875 163.886719 160.042969 C 163.90625 160.039062 163.921875 160.039062 163.9375 160.039062 C 163.957031 160.035156 163.972656 160.035156 163.988281 160.035156 C 164.019531 160.03125 164.054688 160.027344 164.085938 160.023438 C 164.148438 160.011719 164.210938 160 164.269531 159.984375 C 164.332031 159.96875 164.390625 159.949219 164.445312 159.929688 C 164.558594 159.890625 164.664062 159.839844 164.761719 159.777344 C 164.960938 159.652344 165.128906 159.484375 165.269531 159.285156 C 165.40625 159.082031 165.5 158.867188 165.519531 158.625 C 165.53125 158.507812 165.523438 158.382812 165.492188 158.25 C 165.480469 158.183594 165.457031 158.117188 165.429688 158.050781 C 165.402344 157.984375 165.367188 157.917969 165.328125 157.847656 C 165.308594 157.8125 165.285156 157.777344 165.261719 157.742188 C 165.25 157.722656 165.238281 157.707031 165.226562 157.6875 C 165.214844 157.671875 165.199219 157.652344 165.1875 157.636719 C 165.132812 157.566406 165.070312 157.496094 165 157.425781 C 164.964844 157.386719 164.925781 157.351562 164.890625 157.316406 C 164.847656 157.28125 164.808594 157.246094 164.765625 157.210938 C 164.675781 157.144531 164.582031 157.070312 164.480469 157.003906 C 164.375 156.9375 164.261719 156.871094 164.140625 156.804688 C 164.082031 156.769531 164.015625 156.742188 163.949219 156.714844 C 163.882812 156.683594 163.816406 156.652344 163.746094 156.625 C 163.710938 156.609375 163.675781 156.59375 163.640625 156.578125 C 163.601562 156.566406 163.566406 156.554688 163.527344 156.539062 C 163.453125 156.511719 163.375 156.488281 163.292969 156.460938 C 163.253906 156.449219 163.214844 156.4375 163.171875 156.425781 C 163.132812 156.414062 163.089844 156.40625 163.046875 156.394531 C 162.960938 156.371094 162.875 156.351562 162.785156 156.332031 C 162.425781 156.261719 161.972656 156.207031 161.464844 156.226562 C 160.957031 156.242188 160.394531 156.3125 159.820312 156.457031 C 159.25 156.601562 158.671875 156.816406 158.128906 157.089844 C 157.589844 157.367188 157.082031 157.699219 156.640625 158.0625 C 156.199219 158.425781 155.820312 158.820312 155.515625 159.199219 C 155.207031 159.574219 154.972656 159.949219 154.796875 160.261719 C 154.753906 160.34375 154.710938 160.417969 154.671875 160.488281 C 154.664062 160.507812 154.652344 160.523438 154.644531 160.542969 C 154.636719 160.558594 154.625 160.578125 154.617188 160.59375 C 154.601562 160.628906 154.585938 160.664062 154.570312 160.695312 C 154.511719 160.824219 154.457031 160.933594 154.421875 161.027344 C 154.347656 161.214844 154.308594 161.316406 154.308594 161.316406 C 154.308594 161.316406 154.390625 161.246094 154.542969 161.121094 C 154.617188 161.054688 154.714844 160.984375 154.824219 160.902344 Z M 249.632812 193.027344 C 248.355469 192.765625 246.476562 192.382812 244.054688 192.085938 C 243.445312 192.019531 242.804688 191.933594 242.132812 191.882812 C 241.792969 191.855469 241.449219 191.828125 241.097656 191.796875 C 240.742188 191.777344 240.382812 191.757812 240.011719 191.738281 C 239.828125 191.726562 239.640625 191.71875 239.453125 191.707031 C 239.265625 191.703125 239.074219 191.699219 238.882812 191.695312 C 238.496094 191.6875 238.105469 191.667969 237.703125 191.667969 C 237.300781 191.671875 236.894531 191.675781 236.480469 191.675781 C 236.066406 191.683594 235.640625 191.707031 235.214844 191.71875 C 231.78125 191.871094 227.882812 192.414062 223.773438 193.640625 C 221.714844 194.246094 219.617188 195.03125 217.5 195.964844 C 217.234375 196.078125 216.972656 196.203125 216.710938 196.324219 C 216.445312 196.449219 216.179688 196.574219 215.914062 196.699219 C 215.386719 196.957031 214.851562 197.210938 214.324219 197.488281 C 213.261719 198.03125 212.207031 198.617188 211.144531 199.226562 C 206.902344 201.667969 202.714844 204.628906 198.457031 207.550781 C 196.328125 209.011719 194.171875 210.453125 191.964844 211.789062 C 189.757812 213.117188 187.503906 214.347656 185.1875 215.34375 C 182.871094 216.339844 180.503906 217.128906 178.09375 217.617188 C 176.886719 217.859375 175.675781 218.046875 174.457031 218.152344 L 174.34375 218.164062 C 174.539062 218.136719 174.359375 218.160156 174.386719 218.15625 L 174.320312 218.160156 L 174.0625 218.175781 L 173.023438 218.242188 C 172.984375 218.246094 172.933594 218.25 172.902344 218.25 L 172.800781 218.25 L 172.59375 218.246094 L 171.785156 218.246094 L 170.90625 218.207031 L 170.464844 218.1875 L 170.027344 218.144531 C 169.734375 218.117188 169.441406 218.09375 169.152344 218.058594 C 168.570312 217.96875 167.992188 217.902344 167.421875 217.773438 C 166.847656 217.675781 166.289062 217.519531 165.726562 217.378906 C 165.445312 217.304688 165.171875 217.214844 164.894531 217.132812 L 164.480469 217.007812 L 164.074219 216.859375 C 161.894531 216.105469 159.859375 215.03125 158.027344 213.738281 L 157.351562 213.242188 C 157.125 213.078125 156.917969 212.890625 156.699219 212.71875 L 156.375 212.457031 C 156.226562 212.335938 156.089844 212.195312 155.941406 212.078125 C 155.761719 211.914062 155.582031 211.75 155.402344 211.582031 C 155.027344 211.207031 154.640625 210.851562 154.292969 210.453125 L 154.015625 210.152344 L 153.875 210.003906 L 153.746094 209.847656 C 153.570312 209.640625 153.398438 209.433594 153.222656 209.226562 C 153.050781 209.019531 152.894531 208.796875 152.730469 208.585938 C 152.566406 208.371094 152.402344 208.160156 152.257812 207.9375 C 152.105469 207.714844 151.957031 207.496094 151.804688 207.277344 C 151.667969 207.050781 151.527344 206.828125 151.390625 206.601562 L 151.183594 206.265625 L 150.992188 205.917969 C 150.867188 205.6875 150.738281 205.460938 150.617188 205.230469 C 150.503906 204.996094 150.390625 204.761719 150.277344 204.53125 C 150.222656 204.414062 150.160156 204.296875 150.109375 204.179688 L 149.957031 203.824219 C 149.535156 202.886719 149.222656 201.914062 148.929688 200.960938 C 148.882812 200.773438 148.832031 200.589844 148.785156 200.402344 C 148.746094 200.222656 148.691406 200.046875 148.648438 199.867188 L 148.574219 199.5 C 148.523438 199.261719 148.476562 199.019531 148.425781 198.777344 C 148.386719 198.53125 148.351562 198.289062 148.3125 198.046875 C 148.222656 197.566406 148.195312 197.078125 148.140625 196.601562 L 148.121094 196.421875 C 148.113281 196.371094 148.160156 196.699219 148.136719 196.535156 L 148.125 196.359375 L 148.097656 195.898438 L 148.066406 195.4375 L 148.050781 195.210938 C 148.046875 195.136719 148.039062 195.042969 148.042969 195.003906 C 148.050781 194.800781 148.054688 194.597656 148.058594 194.398438 L 148.058594 194.097656 C 148.058594 193.992188 148.070312 193.867188 148.074219 193.753906 C 148.085938 193.523438 148.097656 193.289062 148.109375 193.058594 C 148.113281 192.945312 148.125 192.828125 148.136719 192.714844 L 148.171875 192.375 C 148.523438 188.726562 149.785156 185.480469 151.417969 182.851562 C 153.0625 180.210938 155.097656 178.199219 157.085938 176.769531 C 158.082031 176.054688 159.066406 175.476562 159.996094 174.996094 C 160.234375 174.886719 160.464844 174.773438 160.691406 174.667969 C 160.800781 174.609375 160.917969 174.5625 161.03125 174.515625 C 161.144531 174.46875 161.253906 174.425781 161.363281 174.378906 C 161.796875 174.179688 162.234375 174.046875 162.636719 173.894531 C 162.835938 173.816406 163.042969 173.769531 163.234375 173.707031 C 163.429688 173.648438 163.613281 173.582031 163.800781 173.535156 C 164.171875 173.445312 164.515625 173.351562 164.839844 173.277344 C 165.167969 173.214844 165.46875 173.15625 165.742188 173.097656 C 165.914062 173.074219 166.074219 173.050781 166.226562 173.027344 C 165.914062 172.988281 165.585938 172.949219 165.234375 172.917969 C 164.335938 172.824219 163.308594 172.75 162.195312 172.765625 C 161.082031 172.777344 159.882812 172.878906 158.664062 173.097656 C 157.445312 173.316406 156.207031 173.660156 155.027344 174.109375 C 153.847656 174.558594 152.726562 175.113281 151.730469 175.714844 C 150.722656 176.3125 149.863281 176.96875 149.140625 177.558594 C 148.964844 177.710938 148.796875 177.855469 148.636719 177.992188 C 148.59375 178.027344 148.554688 178.0625 148.515625 178.097656 C 148.476562 178.132812 148.441406 178.167969 148.40625 178.199219 C 148.332031 178.269531 148.261719 178.335938 148.191406 178.402344 C 147.921875 178.660156 147.675781 178.882812 147.496094 179.082031 C 147.121094 179.472656 146.910156 179.691406 146.910156 179.691406 C 146.910156 179.691406 146.992188 179.394531 147.136719 178.871094 C 147.203125 178.601562 147.316406 178.289062 147.441406 177.914062 C 147.472656 177.820312 147.503906 177.726562 147.539062 177.628906 C 147.554688 177.578125 147.574219 177.527344 147.589844 177.476562 C 147.609375 177.425781 147.632812 177.375 147.652344 177.324219 C 147.734375 177.117188 147.824219 176.898438 147.914062 176.667969 C 148.304688 175.757812 148.820312 174.675781 149.546875 173.554688 C 150.265625 172.429688 151.171875 171.246094 152.265625 170.121094 C 153.351562 168.996094 154.667969 167.992188 156.019531 167.015625 C 158.003906 165.578125 160.742188 164.667969 162.933594 164.132812 C 164.976562 163.632812 166.308594 161.667969 166.011719 159.585938 C 166.011719 159.578125 166.007812 159.566406 166.007812 159.554688 C 165.882812 159.789062 165.734375 160 165.554688 160.183594 C 165.425781 160.3125 165.28125 160.429688 165.125 160.53125 C 165.042969 160.582031 164.960938 160.632812 164.875 160.679688 C 164.785156 160.722656 164.695312 160.765625 164.601562 160.804688 C 164.554688 160.824219 164.503906 160.839844 164.457031 160.855469 C 164.433594 160.863281 164.40625 160.875 164.382812 160.878906 C 164.355469 160.890625 164.332031 160.898438 164.304688 160.90625 C 164.203125 160.941406 164.097656 160.96875 163.984375 160.992188 C 163.929688 161.003906 163.871094 161.015625 163.816406 161.023438 C 163.757812 161.035156 163.699219 161.050781 163.636719 161.058594 C 163.515625 161.078125 163.390625 161.09375 163.261719 161.105469 C 162.738281 161.164062 162.132812 161.179688 161.402344 161.195312 C 161.039062 161.210938 160.585938 161.1875 160.0625 161.203125 C 159.539062 161.210938 158.945312 161.238281 158.308594 161.324219 C 157.671875 161.40625 156.992188 161.546875 156.308594 161.753906 C 155.625 161.964844 154.9375 162.246094 154.292969 162.582031 C 153.648438 162.921875 153.042969 163.316406 152.511719 163.730469 C 151.972656 164.140625 151.527344 164.578125 151.152344 164.964844 C 151.0625 165.066406 150.976562 165.160156 150.890625 165.25 C 150.871094 165.273438 150.851562 165.292969 150.832031 165.316406 C 150.8125 165.339844 150.792969 165.359375 150.773438 165.382812 C 150.738281 165.425781 150.703125 165.46875 150.667969 165.511719 C 150.527344 165.679688 150.402344 165.824219 150.3125 165.949219 C 150.125 166.199219 150.019531 166.339844 150.019531 166.339844 C 150.019531 166.339844 150.046875 166.164062 150.09375 165.855469 C 150.113281 165.695312 150.15625 165.507812 150.203125 165.285156 C 150.214844 165.230469 150.226562 165.171875 150.238281 165.113281 C 150.246094 165.085938 150.25 165.054688 150.257812 165.023438 C 150.265625 164.992188 150.273438 164.960938 150.28125 164.933594 C 150.316406 164.808594 150.351562 164.675781 150.390625 164.539062 C 150.550781 163.988281 150.773438 163.332031 151.113281 162.640625 C 151.449219 161.945312 151.886719 161.207031 152.433594 160.484375 C 152.679688 160.164062 152.949219 159.847656 153.234375 159.539062 C 153.226562 159.542969 153.21875 159.546875 153.210938 159.550781 C 153.015625 159.660156 152.824219 159.765625 152.632812 159.886719 C 152.25 160.128906 151.859375 160.371094 151.457031 160.617188 C 149.886719 161.648438 148.257812 162.867188 146.660156 164.3125 C 145.0625 165.753906 143.492188 167.425781 142.035156 169.332031 C 140.578125 171.238281 139.238281 173.378906 138.105469 175.726562 C 136.96875 178.078125 136.039062 180.640625 135.394531 183.359375 C 134.742188 186.078125 134.414062 188.960938 134.433594 191.898438 C 134.4375 192.085938 134.4375 192.269531 134.4375 192.453125 C 134.4375 192.636719 134.441406 192.820312 134.453125 193.007812 C 134.472656 193.375 134.492188 193.742188 134.515625 194.113281 C 134.527344 194.304688 134.53125 194.480469 134.550781 194.679688 C 134.570312 194.878906 134.589844 195.082031 134.613281 195.285156 C 134.65625 195.6875 134.699219 196.09375 134.746094 196.5 C 134.757812 196.613281 134.769531 196.671875 134.78125 196.753906 L 134.820312 196.980469 L 134.894531 197.433594 L 134.972656 197.890625 L 134.992188 198.003906 L 135 198.0625 C 134.984375 197.933594 135.035156 198.296875 135.035156 198.289062 L 135.09375 198.566406 C 135.25 199.304688 135.386719 200.050781 135.597656 200.785156 C 135.695312 201.152344 135.789062 201.523438 135.894531 201.890625 C 136.007812 202.257812 136.125 202.621094 136.242188 202.988281 L 136.417969 203.539062 C 136.484375 203.722656 136.550781 203.902344 136.621094 204.082031 C 136.753906 204.445312 136.890625 204.804688 137.027344 205.167969 C 137.625 206.601562 138.273438 208.027344 139.0625 209.386719 L 139.351562 209.902344 C 139.445312 210.074219 139.554688 210.238281 139.660156 210.40625 C 139.867188 210.738281 140.078125 211.074219 140.285156 211.410156 C 140.503906 211.738281 140.734375 212.0625 140.960938 212.386719 L 141.300781 212.875 L 141.660156 213.34375 C 141.902344 213.660156 142.144531 213.976562 142.390625 214.285156 C 142.644531 214.589844 142.902344 214.894531 143.160156 215.195312 C 143.414062 215.503906 143.6875 215.792969 143.960938 216.085938 C 144.238281 216.371094 144.5 216.671875 144.789062 216.949219 C 145.074219 217.226562 145.363281 217.503906 145.648438 217.78125 L 145.867188 217.988281 L 146.089844 218.1875 L 146.542969 218.585938 C 147.132812 219.125 147.773438 219.609375 148.398438 220.113281 C 148.71875 220.351562 149.046875 220.582031 149.371094 220.820312 C 149.535156 220.9375 149.695312 221.054688 149.863281 221.167969 L 150.367188 221.496094 C 150.707031 221.714844 151.035156 221.945312 151.382812 222.148438 C 151.730469 222.351562 152.078125 222.554688 152.425781 222.757812 C 155.230469 224.332031 158.257812 225.535156 161.398438 226.277344 L 161.984375 226.417969 L 162.578125 226.535156 C 162.972656 226.609375 163.367188 226.691406 163.765625 226.757812 C 164.5625 226.871094 165.355469 226.996094 166.160156 227.058594 C 166.957031 227.144531 167.761719 227.164062 168.5625 227.199219 C 168.960938 227.207031 169.363281 227.199219 169.761719 227.195312 L 170.363281 227.191406 L 170.960938 227.15625 C 171.359375 227.132812 171.753906 227.113281 172.160156 227.082031 L 173.421875 226.949219 L 173.738281 226.910156 L 173.894531 226.894531 C 173.949219 226.886719 173.984375 226.878906 174.027344 226.871094 L 175.691406 226.59375 C 177.210938 226.304688 178.710938 225.914062 180.171875 225.457031 C 183.105469 224.542969 185.871094 223.285156 188.4375 221.855469 C 191.011719 220.421875 193.367188 218.800781 195.59375 217.136719 C 197.808594 215.464844 199.890625 213.746094 201.890625 212.054688 C 203.890625 210.363281 205.820312 208.707031 207.726562 207.132812 C 209.628906 205.558594 211.511719 204.074219 213.394531 202.714844 C 214.339844 202.039062 215.277344 201.382812 216.222656 200.777344 C 216.691406 200.464844 217.167969 200.179688 217.636719 199.882812 C 217.875 199.742188 218.113281 199.601562 218.347656 199.460938 C 218.582031 199.320312 218.816406 199.179688 219.054688 199.050781 C 220.945312 197.976562 222.828125 197.039062 224.699219 196.28125 C 228.4375 194.742188 232.078125 193.84375 235.367188 193.363281 C 235.777344 193.308594 236.183594 193.246094 236.582031 193.199219 C 236.984375 193.15625 237.378906 193.113281 237.765625 193.074219 C 238.152344 193.035156 238.535156 193.011719 238.910156 192.980469 C 239.097656 192.964844 239.28125 192.953125 239.464844 192.9375 C 239.648438 192.929688 239.832031 192.921875 240.011719 192.910156 C 240.375 192.894531 240.730469 192.878906 241.078125 192.863281 C 241.421875 192.855469 241.761719 192.851562 242.097656 192.847656 C 242.761719 192.828125 243.394531 192.847656 243.996094 192.855469 C 246.410156 192.90625 248.304688 193.09375 249.597656 193.222656 C 250.886719 193.382812 251.578125 193.46875 251.578125 193.46875 C 251.578125 193.46875 250.898438 193.316406 249.632812 193.027344 Z M 161.863281 180.011719 C 161.820312 179.957031 161.769531 179.902344 161.714844 179.847656 C 161.6875 179.820312 161.660156 179.796875 161.628906 179.769531 C 161.613281 179.753906 161.597656 179.742188 161.582031 179.730469 C 161.5625 179.714844 161.546875 179.703125 161.53125 179.691406 C 161.460938 179.640625 161.386719 179.589844 161.304688 179.542969 C 161.261719 179.519531 161.21875 179.496094 161.171875 179.472656 C 161.128906 179.449219 161.082031 179.429688 161.03125 179.40625 C 160.933594 179.367188 160.828125 179.324219 160.714844 179.289062 C 160.601562 179.253906 160.480469 179.222656 160.351562 179.191406 C 160.289062 179.175781 160.222656 179.167969 160.152344 179.15625 C 160.082031 179.144531 160.011719 179.132812 159.941406 179.125 C 159.90625 179.121094 159.867188 179.113281 159.832031 179.109375 C 159.792969 179.109375 159.753906 179.105469 159.71875 179.105469 C 159.640625 179.097656 159.5625 179.09375 159.484375 179.09375 C 159.441406 179.089844 159.402344 179.089844 159.359375 179.089844 C 159.320312 179.089844 159.277344 179.089844 159.238281 179.09375 C 159.152344 179.09375 159.066406 179.097656 158.980469 179.101562 C 158.628906 179.128906 158.199219 179.195312 157.730469 179.34375 C 157.265625 179.488281 156.765625 179.699219 156.273438 179.976562 C 155.785156 180.253906 155.304688 180.601562 154.875 180.996094 C 154.445312 181.386719 154.0625 181.828125 153.75 182.277344 C 153.433594 182.726562 153.1875 183.183594 153 183.613281 C 152.8125 184.042969 152.691406 184.445312 152.609375 184.78125 C 152.589844 184.863281 152.570312 184.945312 152.550781 185.019531 C 152.546875 185.039062 152.542969 185.058594 152.539062 185.078125 C 152.535156 185.097656 152.53125 185.113281 152.53125 185.132812 C 152.523438 185.167969 152.519531 185.203125 152.511719 185.238281 C 152.488281 185.371094 152.46875 185.488281 152.460938 185.585938 C 152.4375 185.773438 152.425781 185.878906 152.425781 185.878906 C 152.425781 185.878906 152.488281 185.792969 152.59375 185.636719 C 152.648438 185.558594 152.71875 185.46875 152.800781 185.363281 C 152.820312 185.335938 152.839844 185.308594 152.859375 185.28125 C 152.871094 185.269531 152.882812 185.253906 152.894531 185.238281 C 152.90625 185.226562 152.917969 185.214844 152.929688 185.199219 C 152.976562 185.140625 153.027344 185.082031 153.082031 185.019531 C 153.296875 184.777344 153.558594 184.503906 153.871094 184.242188 C 154.183594 183.976562 154.542969 183.722656 154.925781 183.503906 C 155.308594 183.28125 155.714844 183.09375 156.125 182.953125 C 156.535156 182.808594 156.941406 182.707031 157.328125 182.644531 C 157.710938 182.578125 158.070312 182.546875 158.386719 182.527344 C 158.703125 182.503906 158.976562 182.507812 159.199219 182.488281 C 159.640625 182.464844 160.003906 182.441406 160.320312 182.390625 C 160.398438 182.382812 160.476562 182.371094 160.546875 182.355469 C 160.582031 182.347656 160.621094 182.339844 160.652344 182.332031 C 160.6875 182.324219 160.722656 182.316406 160.757812 182.304688 C 160.824219 182.289062 160.886719 182.269531 160.949219 182.246094 C 160.964844 182.238281 160.980469 182.234375 160.996094 182.230469 C 161.007812 182.222656 161.023438 182.21875 161.039062 182.214844 C 161.066406 182.203125 161.097656 182.1875 161.125 182.175781 C 161.179688 182.152344 161.234375 182.125 161.289062 182.09375 C 161.339844 182.0625 161.386719 182.03125 161.433594 182 C 161.527344 181.933594 161.613281 181.859375 161.6875 181.777344 C 161.835938 181.613281 161.953125 181.414062 162.027344 181.191406 C 162.105469 180.972656 162.136719 180.746094 162.09375 180.519531 C 162.074219 180.40625 162.035156 180.292969 161.972656 180.179688 C 161.941406 180.121094 161.90625 180.066406 161.863281 180.011719 Z M 175.695312 179.667969 C 175.214844 179.25 174.636719 178.84375 173.992188 178.492188 C 173.347656 178.140625 172.636719 177.851562 171.90625 177.644531 C 171.175781 177.4375 170.429688 177.316406 169.714844 177.28125 C 169.003906 177.238281 168.328125 177.28125 167.726562 177.367188 C 167.125 177.453125 166.597656 177.597656 166.167969 177.734375 C 166.0625 177.773438 165.960938 177.808594 165.863281 177.839844 C 165.839844 177.847656 165.816406 177.855469 165.792969 177.863281 C 165.769531 177.875 165.746094 177.882812 165.726562 177.890625 C 165.679688 177.910156 165.636719 177.925781 165.597656 177.945312 C 165.429688 178.011719 165.289062 178.066406 165.175781 178.125 C 164.953125 178.230469 164.828125 178.292969 164.828125 178.292969 C 164.828125 178.292969 164.964844 178.296875 165.210938 178.308594 C 165.332031 178.3125 165.484375 178.332031 165.65625 178.347656 C 165.695312 178.351562 165.742188 178.355469 165.785156 178.359375 C 165.808594 178.363281 165.832031 178.363281 165.855469 178.367188 C 165.878906 178.371094 165.902344 178.375 165.925781 178.378906 C 166.019531 178.390625 166.121094 178.40625 166.226562 178.421875 C 166.644531 178.496094 167.128906 178.59375 167.632812 178.765625 C 168.136719 178.929688 168.664062 179.148438 169.167969 179.417969 C 169.675781 179.691406 170.164062 180.015625 170.601562 180.371094 C 171.039062 180.722656 171.433594 181.105469 171.769531 181.484375 C 172.105469 181.863281 172.386719 182.238281 172.625 182.574219 C 172.863281 182.910156 173.046875 183.214844 173.21875 183.449219 C 173.550781 183.917969 173.832031 184.304688 174.097656 184.621094 C 174.164062 184.699219 174.230469 184.777344 174.296875 184.847656 C 174.332031 184.882812 174.363281 184.914062 174.398438 184.945312 C 174.429688 184.980469 174.460938 185.011719 174.492188 185.042969 C 174.558594 185.105469 174.625 185.164062 174.691406 185.214844 C 174.710938 185.226562 174.726562 185.242188 174.742188 185.253906 C 174.757812 185.265625 174.773438 185.28125 174.792969 185.292969 C 174.824219 185.316406 174.855469 185.339844 174.890625 185.363281 C 174.957031 185.40625 175.023438 185.449219 175.09375 185.484375 C 175.160156 185.523438 175.230469 185.554688 175.296875 185.582031 C 175.433594 185.640625 175.574219 185.683594 175.71875 185.710938 C 176.003906 185.761719 176.300781 185.753906 176.597656 185.683594 C 176.894531 185.617188 177.164062 185.496094 177.386719 185.296875 C 177.496094 185.195312 177.597656 185.074219 177.679688 184.925781 C 177.722656 184.855469 177.757812 184.777344 177.789062 184.691406 C 177.820312 184.605469 177.847656 184.515625 177.867188 184.417969 C 177.878906 184.367188 177.886719 184.316406 177.898438 184.265625 C 177.902344 184.238281 177.90625 184.210938 177.910156 184.183594 C 177.910156 184.160156 177.914062 184.132812 177.914062 184.105469 C 177.925781 183.992188 177.925781 183.875 177.921875 183.75 C 177.921875 183.691406 177.917969 183.625 177.914062 183.558594 C 177.90625 183.496094 177.898438 183.429688 177.886719 183.359375 C 177.863281 183.222656 177.839844 183.078125 177.800781 182.925781 C 177.761719 182.777344 177.714844 182.621094 177.660156 182.460938 C 177.632812 182.378906 177.597656 182.296875 177.5625 182.214844 C 177.527344 182.128906 177.488281 182.042969 177.449219 181.957031 C 177.429688 181.914062 177.410156 181.871094 177.390625 181.828125 C 177.367188 181.785156 177.34375 181.742188 177.320312 181.699219 C 177.273438 181.609375 177.222656 181.519531 177.171875 181.429688 C 177.144531 181.386719 177.121094 181.335938 177.09375 181.292969 C 177.0625 181.25 177.035156 181.203125 177.003906 181.15625 C 176.945312 181.066406 176.882812 180.972656 176.816406 180.878906 C 176.546875 180.511719 176.175781 180.082031 175.695312 179.667969 Z M 162.148438 166.703125 C 161.152344 166.921875 160.1875 167.253906 159.320312 167.660156 C 158.449219 168.066406 157.671875 168.546875 157.015625 169.03125 C 156.355469 169.515625 155.824219 170.023438 155.402344 170.457031 C 155.300781 170.570312 155.199219 170.675781 155.109375 170.773438 C 155.085938 170.800781 155.0625 170.824219 155.039062 170.847656 C 155.019531 170.875 154.996094 170.898438 154.976562 170.921875 C 154.9375 170.972656 154.894531 171.019531 154.855469 171.066406 C 154.703125 171.253906 154.570312 171.410156 154.472656 171.546875 C 154.277344 171.816406 154.167969 171.96875 154.167969 171.96875 C 154.167969 171.96875 154.335938 171.890625 154.636719 171.746094 C 154.78125 171.671875 154.96875 171.597656 155.183594 171.507812 C 155.234375 171.488281 155.289062 171.464844 155.347656 171.441406 C 155.375 171.429688 155.402344 171.417969 155.433594 171.40625 C 155.464844 171.394531 155.492188 171.382812 155.523438 171.375 C 155.644531 171.328125 155.773438 171.285156 155.910156 171.234375 C 156.449219 171.054688 157.085938 170.867188 157.792969 170.746094 C 158.496094 170.621094 159.257812 170.542969 160.03125 170.546875 C 160.804688 170.546875 161.585938 170.621094 162.332031 170.761719 C 163.078125 170.902344 163.785156 171.105469 164.425781 171.339844 C 165.066406 171.578125 165.636719 171.84375 166.132812 172.09375 C 166.628906 172.335938 167.042969 172.582031 167.394531 172.746094 C 168.085938 173.09375 168.664062 173.375 169.183594 173.578125 C 169.3125 173.628906 169.433594 173.679688 169.558594 173.71875 C 169.621094 173.738281 169.683594 173.757812 169.742188 173.773438 C 169.800781 173.792969 169.859375 173.8125 169.917969 173.828125 C 170.035156 173.859375 170.148438 173.886719 170.261719 173.90625 C 170.292969 173.910156 170.320312 173.914062 170.347656 173.917969 C 170.375 173.925781 170.402344 173.929688 170.429688 173.933594 C 170.484375 173.941406 170.535156 173.949219 170.589844 173.957031 C 170.699219 173.964844 170.804688 173.972656 170.910156 173.972656 C 171.011719 173.972656 171.117188 173.964844 171.214844 173.957031 C 171.414062 173.941406 171.605469 173.902344 171.792969 173.839844 C 172.164062 173.722656 172.511719 173.519531 172.820312 173.25 C 173.128906 172.980469 173.375 172.667969 173.507812 172.289062 C 173.574219 172.097656 173.613281 171.890625 173.621094 171.664062 C 173.625 171.550781 173.617188 171.4375 173.601562 171.316406 C 173.582031 171.195312 173.554688 171.070312 173.519531 170.941406 C 173.503906 170.875 173.480469 170.808594 173.457031 170.742188 C 173.445312 170.710938 173.433594 170.675781 173.421875 170.640625 C 173.40625 170.605469 173.394531 170.574219 173.378906 170.539062 C 173.316406 170.402344 173.246094 170.261719 173.164062 170.117188 C 173.121094 170.042969 173.078125 169.972656 173.027344 169.894531 C 172.980469 169.824219 172.925781 169.75 172.871094 169.675781 C 172.757812 169.527344 172.636719 169.371094 172.496094 169.214844 C 172.351562 169.066406 172.195312 168.910156 172.027344 168.753906 C 171.945312 168.671875 171.851562 168.601562 171.757812 168.523438 C 171.664062 168.445312 171.5625 168.367188 171.460938 168.292969 C 171.410156 168.253906 171.359375 168.214844 171.308594 168.175781 C 171.253906 168.140625 171.199219 168.101562 171.140625 168.066406 C 171.03125 167.992188 170.914062 167.914062 170.796875 167.839844 C 170.738281 167.804688 170.675781 167.765625 170.613281 167.730469 C 170.550781 167.695312 170.488281 167.660156 170.421875 167.625 C 170.292969 167.554688 170.160156 167.484375 170.023438 167.414062 C 169.472656 167.152344 168.757812 166.875 167.921875 166.691406 C 167.089844 166.503906 166.144531 166.382812 165.160156 166.378906 C 164.171875 166.375 163.140625 166.480469 162.148438 166.703125 Z M 169.089844 163.941406 C 169.113281 163.933594 169.136719 163.925781 169.160156 163.917969 C 169.171875 163.914062 169.183594 163.90625 169.195312 163.902344 C 169.207031 163.898438 169.21875 163.898438 169.230469 163.890625 C 169.28125 163.878906 169.332031 163.863281 169.386719 163.84375 C 169.609375 163.78125 169.867188 163.714844 170.152344 163.679688 C 170.4375 163.640625 170.746094 163.625 171.054688 163.640625 C 171.363281 163.652344 171.675781 163.699219 171.972656 163.765625 C 172.269531 163.835938 172.550781 163.929688 172.804688 164.039062 C 173.058594 164.144531 173.28125 164.261719 173.476562 164.367188 C 173.671875 164.472656 173.832031 164.582031 173.972656 164.652344 C 174.242188 164.804688 174.46875 164.929688 174.675781 165.019531 C 174.726562 165.042969 174.773438 165.0625 174.824219 165.082031 C 174.847656 165.089844 174.871094 165.097656 174.894531 165.105469 C 174.917969 165.117188 174.941406 165.125 174.964844 165.132812 C 175.011719 165.148438 175.058594 165.160156 175.101562 165.167969 C 175.113281 165.171875 175.125 165.175781 175.136719 165.175781 C 175.144531 165.179688 175.15625 165.179688 175.167969 165.183594 C 175.191406 165.1875 175.210938 165.191406 175.230469 165.195312 C 175.273438 165.203125 175.316406 165.207031 175.359375 165.207031 C 175.402344 165.210938 175.445312 165.207031 175.484375 165.207031 C 175.5625 165.203125 175.640625 165.191406 175.714844 165.171875 C 175.867188 165.128906 176.011719 165.054688 176.140625 164.953125 C 176.269531 164.847656 176.371094 164.726562 176.433594 164.578125 C 176.464844 164.503906 176.484375 164.421875 176.488281 164.328125 C 176.492188 164.285156 176.492188 164.238281 176.488281 164.1875 C 176.480469 164.140625 176.472656 164.089844 176.460938 164.035156 C 176.457031 164.011719 176.449219 163.984375 176.441406 163.957031 C 176.4375 163.941406 176.433594 163.929688 176.425781 163.914062 C 176.421875 163.898438 176.417969 163.886719 176.410156 163.871094 C 176.390625 163.816406 176.363281 163.757812 176.332031 163.699219 C 176.316406 163.667969 176.300781 163.640625 176.28125 163.609375 C 176.265625 163.578125 176.242188 163.546875 176.222656 163.515625 C 176.179688 163.457031 176.132812 163.390625 176.082031 163.328125 C 176.027344 163.261719 175.964844 163.199219 175.902344 163.132812 C 175.867188 163.097656 175.832031 163.066406 175.796875 163.035156 C 175.761719 163.003906 175.722656 162.96875 175.683594 162.9375 C 175.664062 162.921875 175.644531 162.90625 175.621094 162.886719 C 175.601562 162.871094 175.578125 162.855469 175.558594 162.839844 C 175.515625 162.808594 175.46875 162.777344 175.421875 162.746094 C 175.398438 162.730469 175.375 162.710938 175.351562 162.695312 C 175.328125 162.683594 175.300781 162.667969 175.277344 162.652344 C 175.226562 162.621094 175.175781 162.589844 175.121094 162.558594 C 174.902344 162.445312 174.621094 162.320312 174.289062 162.230469 C 173.960938 162.140625 173.582031 162.078125 173.1875 162.058594 C 172.789062 162.039062 172.375 162.0625 171.972656 162.132812 C 171.566406 162.207031 171.175781 162.320312 170.820312 162.46875 C 170.464844 162.617188 170.144531 162.796875 169.871094 162.980469 C 169.597656 163.160156 169.375 163.355469 169.199219 163.523438 C 169.15625 163.566406 169.113281 163.605469 169.074219 163.644531 C 169.066406 163.65625 169.054688 163.664062 169.046875 163.671875 C 169.035156 163.683594 169.027344 163.691406 169.019531 163.703125 C 169 163.722656 168.984375 163.738281 168.96875 163.757812 C 168.902344 163.828125 168.847656 163.890625 168.804688 163.941406 C 168.722656 164.046875 168.675781 164.105469 168.675781 164.105469 C 168.675781 164.105469 168.742188 164.078125 168.867188 164.027344 C 168.925781 164 169.003906 163.972656 169.089844 163.941406 Z M 176.550781 207.285156 C 175.050781 207.777344 173.707031 208.128906 172.585938 208.394531 C 171.464844 208.648438 170.570312 208.824219 169.953125 208.933594 C 169.335938 209.042969 169.007812 209.101562 169.007812 209.101562 C 169.007812 209.101562 169.089844 209.117188 169.25 209.140625 C 169.410156 209.164062 169.648438 209.203125 169.960938 209.246094 C 170.273438 209.296875 170.660156 209.332031 171.113281 209.375 C 171.574219 209.429688 172.097656 209.445312 172.691406 209.476562 C 173.875 209.511719 175.320312 209.492188 176.976562 209.328125 C 177.390625 209.285156 177.820312 209.242188 178.257812 209.171875 C 178.695312 209.109375 179.144531 209.042969 179.605469 208.957031 C 179.835938 208.917969 180.070312 208.878906 180.304688 208.832031 C 180.539062 208.78125 180.777344 208.730469 181.019531 208.679688 C 181.5 208.582031 181.984375 208.457031 182.488281 208.335938 C 184.476562 207.828125 186.597656 207.140625 188.769531 206.277344 C 190.941406 205.417969 193.171875 204.394531 195.417969 203.285156 C 197.667969 202.171875 199.941406 200.976562 202.226562 199.78125 C 204.511719 198.585938 206.816406 197.398438 209.136719 196.304688 C 210.292969 195.753906 211.460938 195.234375 212.625 194.738281 C 213.792969 194.25 214.960938 193.789062 216.125 193.367188 C 216.417969 193.265625 216.710938 193.164062 217.003906 193.058594 C 217.292969 192.957031 217.589844 192.871094 217.878906 192.769531 C 218.171875 192.671875 218.460938 192.578125 218.753906 192.492188 C 219.046875 192.40625 219.335938 192.3125 219.628906 192.230469 C 220.792969 191.894531 221.953125 191.601562 223.105469 191.347656 C 225.40625 190.851562 227.667969 190.519531 229.839844 190.34375 C 232.011719 190.171875 234.089844 190.132812 236.023438 190.195312 C 237.953125 190.25 239.734375 190.382812 241.316406 190.558594 C 241.515625 190.578125 241.710938 190.597656 241.902344 190.617188 C 242.09375 190.640625 242.28125 190.664062 242.46875 190.6875 C 242.839844 190.738281 243.195312 190.78125 243.542969 190.820312 C 244.230469 190.917969 244.863281 191.007812 245.433594 191.089844 C 246.003906 191.183594 246.515625 191.265625 246.960938 191.332031 C 247.410156 191.402344 247.789062 191.472656 248.101562 191.523438 C 248.722656 191.625 249.050781 191.675781 249.050781 191.675781 C 249.050781 191.675781 248.753906 191.519531 248.199219 191.226562 C 247.917969 191.085938 247.578125 190.902344 247.164062 190.710938 C 246.753906 190.515625 246.273438 190.296875 245.734375 190.054688 C 245.195312 189.816406 244.59375 189.574219 243.933594 189.308594 C 243.597656 189.183594 243.253906 189.050781 242.890625 188.921875 C 242.707031 188.855469 242.523438 188.789062 242.335938 188.722656 C 242.148438 188.660156 241.957031 188.597656 241.761719 188.53125 C 240.195312 188 238.390625 187.507812 236.382812 187.101562 C 234.371094 186.703125 232.148438 186.394531 229.773438 186.292969 C 227.398438 186.1875 224.871094 186.292969 222.285156 186.632812 C 220.992188 186.808594 219.683594 187.046875 218.375 187.335938 C 217.070312 187.640625 215.757812 187.988281 214.457031 188.398438 C 213.160156 188.8125 211.867188 189.273438 210.59375 189.78125 C 209.320312 190.289062 208.066406 190.84375 206.832031 191.421875 C 204.367188 192.585938 201.988281 193.867188 199.707031 195.175781 C 197.421875 196.480469 195.234375 197.808594 193.125 199.070312 C 191.019531 200.332031 188.992188 201.523438 187.042969 202.589844 C 186.070312 203.121094 185.117188 203.625 184.1875 204.089844 C 183.726562 204.328125 183.265625 204.546875 182.8125 204.765625 C 182.359375 204.976562 181.910156 205.175781 181.46875 205.378906 C 181.027344 205.570312 180.597656 205.769531 180.167969 205.9375 C 179.957031 206.023438 179.742188 206.113281 179.535156 206.195312 C 179.324219 206.277344 179.117188 206.359375 178.910156 206.4375 C 178.503906 206.605469 178.097656 206.75 177.703125 206.886719 C 177.3125 207.035156 176.925781 207.152344 176.550781 207.285156 " fill-opacity="1" fill-rule="nonzero"/></g><g clip-path="url(#116dc528fc)"><path fill="#3c6ca8" d="M 215.265625 199.398438 C 210.0625 218.144531 192.875 231.90625 172.46875 231.90625 C 147.941406 231.90625 128.054688 212.019531 128.054688 187.492188 C 128.054688 162.964844 147.941406 143.082031 172.46875 143.082031 C 196.996094 143.082031 216.882812 162.964844 216.882812 187.492188 C 216.882812 188.550781 216.84375 189.601562 216.769531 190.640625 L 221.492188 189.582031 C 221.519531 188.890625 221.535156 188.191406 221.535156 187.492188 C 221.535156 160.394531 199.566406 138.425781 172.46875 138.425781 C 145.371094 138.425781 123.402344 160.394531 123.402344 187.492188 C 123.402344 214.589844 145.371094 236.558594 172.46875 236.558594 C 196.375 236.558594 216.289062 219.460938 220.648438 196.828125 L 215.265625 199.398438 " fill-opacity="1" fill-rule="nonzero"/></g></svg>