<svg xmlns="http://www.w3.org/2000/svg" xmlns:xlink="http://www.w3.org/1999/xlink" width="500" zoomAndPan="magnify" viewBox="0 0 375 374.999991" height="500" preserveAspectRatio="xMidYMid meet" version="1.0"><defs><g/><clipPath id="544c6f68a3"><path d="M 114.605469 184 L 264.605469 184 L 264.605469 277.046875 L 114.605469 277.046875 Z M 114.605469 184 " clip-rule="nonzero"/></clipPath><clipPath id="01e9199666"><path d="M 119 216 L 259 216 L 259 277.046875 L 119 277.046875 Z M 119 216 " clip-rule="nonzero"/></clipPath></defs><g clip-path="url(#544c6f68a3)"><path fill="#6cadde" d="M 114.605469 207.703125 C 117.128906 206.332031 146.097656 185.417969 159.070312 184.292969 C 170.1875 183.328125 182.820312 189.050781 196.898438 194.652344 C 204.21875 197.566406 239.621094 214.390625 264.605469 202.101562 C 264.605469 243.554688 230.953125 277.207031 189.5 277.207031 C 149.9375 277.207031 117.476562 246.546875 114.601562 207.703125 Z M 114.605469 207.703125 " fill-opacity="1" fill-rule="evenodd"/></g><g clip-path="url(#01e9199666)"><path fill="#d9e5f0" d="M 258.234375 232.246094 C 255.898438 231.359375 228.941406 217.675781 216.925781 216.945312 C 206.632812 216.320312 194.9375 220.03125 181.898438 223.664062 C 175.121094 225.554688 142.34375 236.464844 119.207031 228.496094 C 128.984375 253.910156 154.273438 277.207031 188.75 277.207031 C 225.382812 277.207031 248.925781 253.785156 258.234375 232.246094 Z M 258.234375 232.246094 " fill-opacity="0.46" fill-rule="evenodd"/></g><g fill="#ffffff" fill-opacity="1"><g transform="translate(117.791982, 188.782079)"><g><path d="M -2.234375 -9.421875 C -1.617188 -9.285156 -1.078125 -9.0625 -0.609375 -8.75 C -0.148438 -8.445312 0.222656 -8.082031 0.515625 -7.65625 C 0.816406 -7.226562 1.015625 -6.742188 1.109375 -6.203125 C 1.203125 -5.671875 1.1875 -5.109375 1.0625 -4.515625 C 0.9375 -3.921875 0.71875 -3.398438 0.40625 -2.953125 C 0.101562 -2.503906 -0.269531 -2.140625 -0.71875 -1.859375 C -1.164062 -1.585938 -1.660156 -1.410156 -2.203125 -1.328125 C -2.753906 -1.242188 -3.335938 -1.269531 -3.953125 -1.40625 C -4.554688 -1.53125 -5.09375 -1.742188 -5.5625 -2.046875 C -6.03125 -2.347656 -6.410156 -2.71875 -6.703125 -3.15625 C -6.992188 -3.59375 -7.1875 -4.078125 -7.28125 -4.609375 C -7.382812 -5.140625 -7.375 -5.703125 -7.25 -6.296875 C -7.125 -6.890625 -6.90625 -7.410156 -6.59375 -7.859375 C -6.28125 -8.316406 -5.898438 -8.675781 -5.453125 -8.9375 C -5.015625 -9.207031 -4.519531 -9.382812 -3.96875 -9.46875 C -3.414062 -9.5625 -2.835938 -9.546875 -2.234375 -9.421875 Z M -2.46875 -8.28125 C -2.96875 -8.382812 -3.429688 -8.410156 -3.859375 -8.359375 C -4.285156 -8.316406 -4.660156 -8.203125 -4.984375 -8.015625 C -5.304688 -7.828125 -5.578125 -7.566406 -5.796875 -7.234375 C -6.023438 -6.910156 -6.1875 -6.53125 -6.28125 -6.09375 C -6.375 -5.65625 -6.382812 -5.242188 -6.3125 -4.859375 C -6.238281 -4.472656 -6.09375 -4.125 -5.875 -3.8125 C -5.664062 -3.5 -5.375 -3.234375 -5 -3.015625 C -4.632812 -2.796875 -4.203125 -2.632812 -3.703125 -2.53125 C -3.203125 -2.425781 -2.738281 -2.394531 -2.3125 -2.4375 C -1.894531 -2.488281 -1.519531 -2.609375 -1.1875 -2.796875 C -0.851562 -2.992188 -0.578125 -3.253906 -0.359375 -3.578125 C -0.148438 -3.898438 0 -4.28125 0.09375 -4.71875 C 0.1875 -5.15625 0.203125 -5.566406 0.140625 -5.953125 C 0.078125 -6.347656 -0.0625 -6.695312 -0.28125 -7 C -0.507812 -7.3125 -0.804688 -7.578125 -1.171875 -7.796875 C -1.535156 -8.015625 -1.96875 -8.175781 -2.46875 -8.28125 Z M -2.46875 -8.28125 "/></g></g></g><g fill="#ffffff" fill-opacity="1"><g transform="translate(120.983715, 175.920747)"><g><path d="M -2.71875 -4.71875 C -2.601562 -5.007812 -2.535156 -5.285156 -2.515625 -5.546875 C -2.492188 -5.804688 -2.519531 -6.039062 -2.59375 -6.25 C -2.664062 -6.46875 -2.78125 -6.648438 -2.9375 -6.796875 C -3.101562 -6.953125 -3.296875 -7.078125 -3.515625 -7.171875 C -3.972656 -7.347656 -4.378906 -7.332031 -4.734375 -7.125 C -5.085938 -6.914062 -5.382812 -6.507812 -5.625 -5.90625 L -6.078125 -4.765625 L -3.15625 -3.609375 Z M 2.671875 -6.6875 L 2.296875 -5.765625 C 2.222656 -5.566406 2.097656 -5.457031 1.921875 -5.4375 L -1.640625 -4.53125 C -1.753906 -4.5 -1.84375 -4.453125 -1.90625 -4.390625 C -1.96875 -4.335938 -2.03125 -4.238281 -2.09375 -4.09375 L -2.40625 -3.296875 L 0.8125 -2.015625 L 0.390625 -0.984375 L -7.328125 -4.0625 L -6.453125 -6.234375 C -6.253906 -6.734375 -6.03125 -7.140625 -5.78125 -7.453125 C -5.539062 -7.773438 -5.28125 -8.015625 -5 -8.171875 C -4.726562 -8.328125 -4.4375 -8.40625 -4.125 -8.40625 C -3.820312 -8.40625 -3.507812 -8.34375 -3.1875 -8.21875 C -2.914062 -8.101562 -2.675781 -7.957031 -2.46875 -7.78125 C -2.257812 -7.601562 -2.09375 -7.390625 -1.96875 -7.140625 C -1.851562 -6.898438 -1.773438 -6.640625 -1.734375 -6.359375 C -1.703125 -6.078125 -1.707031 -5.773438 -1.75 -5.453125 C -1.625 -5.554688 -1.46875 -5.625 -1.28125 -5.65625 Z M 2.671875 -6.6875 "/></g></g></g><g fill="#ffffff" fill-opacity="1"><g transform="translate(125.504029, 165.541779)"><g><path d="M 2.09375 -5.46875 L 2.90625 -5 L 0.53125 -0.921875 L -6.65625 -5.109375 L -6.09375 -6.0625 L 0.28125 -2.34375 Z M 2.09375 -5.46875 "/></g></g></g><g fill="#ffffff" fill-opacity="1"><g transform="translate(130.739455, 157.021403)"><g><path d="M 1.046875 -6.203125 L -2.40625 -7.3125 C -2.507812 -7.332031 -2.628906 -7.367188 -2.765625 -7.421875 C -2.898438 -7.484375 -3.039062 -7.535156 -3.1875 -7.578125 C -2.988281 -7.328125 -2.835938 -7.101562 -2.734375 -6.90625 L -0.90625 -3.78125 Z M 4.90625 -6.078125 L 4.359375 -5.40625 C 4.296875 -5.332031 4.222656 -5.285156 4.140625 -5.265625 C 4.054688 -5.242188 3.984375 -5.25 3.921875 -5.28125 L 1.859375 -5.921875 L -0.46875 -3.03125 L 0.59375 -1.171875 C 0.632812 -1.097656 0.65625 -1.019531 0.65625 -0.9375 C 0.65625 -0.851562 0.625 -0.773438 0.5625 -0.703125 L 0.015625 -0.03125 L -4.359375 -7.828125 L -3.640625 -8.71875 Z M 4.90625 -6.078125 "/></g></g></g><g fill="#ffffff" fill-opacity="1"><g transform="translate(138.385124, 147.999274)"><g><path d="M 0.34375 -11.390625 L 5.84375 -5.15625 L 5.421875 -4.78125 C 5.359375 -4.71875 5.289062 -4.679688 5.21875 -4.671875 C 5.15625 -4.660156 5.078125 -4.660156 4.984375 -4.671875 L -2.765625 -6.1875 C -2.679688 -6.113281 -2.609375 -6.046875 -2.546875 -5.984375 C -2.492188 -5.921875 -2.441406 -5.859375 -2.390625 -5.796875 L 1.53125 -1.359375 L 0.796875 -0.703125 L -4.703125 -6.9375 L -4.265625 -7.3125 C -4.222656 -7.351562 -4.1875 -7.378906 -4.15625 -7.390625 C -4.132812 -7.410156 -4.101562 -7.425781 -4.0625 -7.4375 C -4.03125 -7.445312 -4 -7.445312 -3.96875 -7.4375 C -3.9375 -7.4375 -3.890625 -7.429688 -3.828125 -7.421875 L 3.890625 -5.90625 C 3.828125 -5.988281 3.757812 -6.0625 3.6875 -6.125 C 3.625 -6.1875 3.5625 -6.25 3.5 -6.3125 L -0.390625 -10.734375 Z M 0.34375 -11.390625 "/></g></g></g><g fill="#ffffff" fill-opacity="1"><g transform="translate(148.214227, 139.797981)"><g><path d="M 4.90625 -7.84375 C 5.226562 -7.3125 5.4375 -6.773438 5.53125 -6.234375 C 5.625 -5.691406 5.613281 -5.171875 5.5 -4.671875 C 5.382812 -4.171875 5.160156 -3.707031 4.828125 -3.28125 C 4.503906 -2.851562 4.078125 -2.476562 3.546875 -2.15625 L 0.90625 -0.546875 L -3.40625 -7.65625 L -0.765625 -9.265625 C -0.234375 -9.585938 0.296875 -9.789062 0.828125 -9.875 C 1.367188 -9.957031 1.882812 -9.9375 2.375 -9.8125 C 2.863281 -9.6875 3.328125 -9.457031 3.765625 -9.125 C 4.203125 -8.800781 4.582031 -8.375 4.90625 -7.84375 Z M 3.921875 -7.234375 C 3.648438 -7.671875 3.347656 -8.023438 3.015625 -8.296875 C 2.691406 -8.566406 2.347656 -8.753906 1.984375 -8.859375 C 1.628906 -8.960938 1.253906 -8.984375 0.859375 -8.921875 C 0.472656 -8.859375 0.0859375 -8.707031 -0.296875 -8.46875 L -1.96875 -7.453125 L 1.40625 -1.921875 L 3.078125 -2.9375 C 3.460938 -3.175781 3.769531 -3.445312 4 -3.75 C 4.238281 -4.0625 4.394531 -4.398438 4.46875 -4.765625 C 4.550781 -5.140625 4.546875 -5.535156 4.453125 -5.953125 C 4.359375 -6.367188 4.179688 -6.796875 3.921875 -7.234375 Z M 3.921875 -7.234375 "/></g></g></g><g fill="#ffffff" fill-opacity="1"><g transform="translate(159.282717, 133.453615)"><g><path d="M 6.65625 -7.015625 C 6.882812 -6.429688 7 -5.859375 7 -5.296875 C 7 -4.742188 6.898438 -4.226562 6.703125 -3.75 C 6.503906 -3.269531 6.203125 -2.84375 5.796875 -2.46875 C 5.398438 -2.09375 4.921875 -1.796875 4.359375 -1.578125 C 3.785156 -1.359375 3.226562 -1.253906 2.6875 -1.265625 C 2.15625 -1.285156 1.648438 -1.40625 1.171875 -1.625 C 0.703125 -1.84375 0.285156 -2.160156 -0.078125 -2.578125 C -0.453125 -2.992188 -0.753906 -3.492188 -0.984375 -4.078125 C -1.203125 -4.648438 -1.3125 -5.210938 -1.3125 -5.765625 C -1.320312 -6.328125 -1.222656 -6.847656 -1.015625 -7.328125 C -0.816406 -7.816406 -0.519531 -8.25 -0.125 -8.625 C 0.257812 -9 0.738281 -9.296875 1.3125 -9.515625 C 1.875 -9.734375 2.425781 -9.832031 2.96875 -9.8125 C 3.519531 -9.800781 4.03125 -9.679688 4.5 -9.453125 C 4.96875 -9.234375 5.390625 -8.914062 5.765625 -8.5 C 6.140625 -8.082031 6.4375 -7.585938 6.65625 -7.015625 Z M 5.578125 -6.59375 C 5.398438 -7.070312 5.171875 -7.476562 4.890625 -7.8125 C 4.617188 -8.144531 4.316406 -8.390625 3.984375 -8.546875 C 3.648438 -8.710938 3.28125 -8.800781 2.875 -8.8125 C 2.476562 -8.820312 2.070312 -8.75 1.65625 -8.59375 C 1.238281 -8.425781 0.890625 -8.207031 0.609375 -7.9375 C 0.328125 -7.664062 0.117188 -7.359375 -0.015625 -7.015625 C -0.160156 -6.671875 -0.222656 -6.28125 -0.203125 -5.84375 C -0.191406 -5.414062 -0.0976562 -4.960938 0.078125 -4.484375 C 0.265625 -4.015625 0.492188 -3.613281 0.765625 -3.28125 C 1.046875 -2.957031 1.351562 -2.707031 1.6875 -2.53125 C 2.03125 -2.351562 2.398438 -2.257812 2.796875 -2.25 C 3.191406 -2.25 3.597656 -2.332031 4.015625 -2.5 C 4.429688 -2.65625 4.78125 -2.863281 5.0625 -3.125 C 5.351562 -3.394531 5.566406 -3.707031 5.703125 -4.0625 C 5.835938 -4.425781 5.894531 -4.820312 5.875 -5.25 C 5.863281 -5.675781 5.765625 -6.125 5.578125 -6.59375 Z M 5.578125 -6.59375 "/></g></g></g><g fill="#ffffff" fill-opacity="1"><g transform="translate(171.930546, 129.135252)"><g><path d="M -0.546875 -8.96875 C -0.316406 -8.75 -0.140625 -8.492188 -0.015625 -8.203125 C 0.109375 -7.910156 0.179688 -7.613281 0.203125 -7.3125 C 0.222656 -7.019531 0.191406 -6.722656 0.109375 -6.421875 C 0.0351562 -6.117188 -0.09375 -5.84375 -0.28125 -5.59375 L -0.625 -5.703125 C -0.695312 -5.722656 -0.734375 -5.757812 -0.734375 -5.8125 C -0.742188 -5.875 -0.738281 -5.925781 -0.71875 -5.96875 C -0.644531 -6.113281 -0.59375 -6.28125 -0.5625 -6.46875 C -0.539062 -6.65625 -0.539062 -6.847656 -0.5625 -7.046875 C -0.582031 -7.253906 -0.640625 -7.457031 -0.734375 -7.65625 C -0.828125 -7.863281 -0.953125 -8.046875 -1.109375 -8.203125 C -1.171875 -8.273438 -1.195312 -8.34375 -1.1875 -8.40625 C -1.1875 -8.476562 -1.160156 -8.535156 -1.109375 -8.578125 Z M -0.546875 -8.96875 "/></g></g></g><g fill="#ffffff" fill-opacity="1"><g transform="translate(178.436089, 127.749169)"><g><path d="M 4.5 -7.5625 C 4.457031 -7.5 4.421875 -7.445312 4.390625 -7.40625 C 4.359375 -7.375 4.3125 -7.351562 4.25 -7.34375 C 4.1875 -7.332031 4.109375 -7.359375 4.015625 -7.421875 C 3.921875 -7.484375 3.800781 -7.546875 3.65625 -7.609375 C 3.507812 -7.671875 3.34375 -7.722656 3.15625 -7.765625 C 2.96875 -7.816406 2.742188 -7.828125 2.484375 -7.796875 C 2.222656 -7.765625 2 -7.703125 1.8125 -7.609375 C 1.632812 -7.523438 1.484375 -7.414062 1.359375 -7.28125 C 1.242188 -7.15625 1.160156 -7.007812 1.109375 -6.84375 C 1.066406 -6.6875 1.054688 -6.519531 1.078125 -6.34375 C 1.097656 -6.113281 1.175781 -5.925781 1.3125 -5.78125 C 1.445312 -5.644531 1.613281 -5.53125 1.8125 -5.4375 C 2.007812 -5.351562 2.234375 -5.285156 2.484375 -5.234375 C 2.734375 -5.179688 2.984375 -5.125 3.234375 -5.0625 C 3.484375 -5.007812 3.734375 -4.941406 3.984375 -4.859375 C 4.234375 -4.785156 4.457031 -4.675781 4.65625 -4.53125 C 4.863281 -4.394531 5.035156 -4.210938 5.171875 -3.984375 C 5.316406 -3.765625 5.410156 -3.484375 5.453125 -3.140625 C 5.492188 -2.785156 5.46875 -2.441406 5.375 -2.109375 C 5.289062 -1.785156 5.144531 -1.492188 4.9375 -1.234375 C 4.726562 -0.972656 4.457031 -0.753906 4.125 -0.578125 C 3.800781 -0.398438 3.421875 -0.285156 2.984375 -0.234375 C 2.441406 -0.179688 1.941406 -0.226562 1.484375 -0.375 C 1.023438 -0.519531 0.617188 -0.738281 0.265625 -1.03125 L 0.53125 -1.59375 C 0.5625 -1.632812 0.597656 -1.671875 0.640625 -1.703125 C 0.679688 -1.734375 0.726562 -1.753906 0.78125 -1.765625 C 0.832031 -1.765625 0.890625 -1.75 0.953125 -1.71875 C 1.023438 -1.6875 1.101562 -1.644531 1.1875 -1.59375 C 1.269531 -1.550781 1.367188 -1.5 1.484375 -1.4375 C 1.597656 -1.375 1.722656 -1.320312 1.859375 -1.28125 C 1.992188 -1.238281 2.148438 -1.203125 2.328125 -1.171875 C 2.503906 -1.148438 2.695312 -1.15625 2.90625 -1.1875 C 3.175781 -1.207031 3.40625 -1.265625 3.59375 -1.359375 C 3.789062 -1.460938 3.957031 -1.582031 4.09375 -1.71875 C 4.226562 -1.863281 4.320312 -2.035156 4.375 -2.234375 C 4.4375 -2.429688 4.453125 -2.644531 4.421875 -2.875 C 4.390625 -3.125 4.304688 -3.320312 4.171875 -3.46875 C 4.046875 -3.613281 3.882812 -3.726562 3.6875 -3.8125 C 3.488281 -3.90625 3.265625 -3.972656 3.015625 -4.015625 C 2.773438 -4.054688 2.523438 -4.101562 2.265625 -4.15625 C 2.015625 -4.207031 1.765625 -4.269531 1.515625 -4.34375 C 1.265625 -4.425781 1.039062 -4.539062 0.84375 -4.6875 C 0.644531 -4.832031 0.472656 -5.019531 0.328125 -5.25 C 0.179688 -5.488281 0.0859375 -5.789062 0.046875 -6.15625 C 0.015625 -6.445312 0.0390625 -6.734375 0.125 -7.015625 C 0.207031 -7.304688 0.34375 -7.566406 0.53125 -7.796875 C 0.726562 -8.035156 0.976562 -8.238281 1.28125 -8.40625 C 1.582031 -8.570312 1.941406 -8.679688 2.359375 -8.734375 C 2.804688 -8.785156 3.226562 -8.753906 3.625 -8.640625 C 4.019531 -8.535156 4.378906 -8.363281 4.703125 -8.125 Z M 4.5 -7.5625 "/></g></g></g><g fill="#ffffff" fill-opacity="1"><g transform="translate(188.847862, 126.931649)"><g/></g></g><g fill="#ffffff" fill-opacity="1"><g transform="translate(195.960738, 127.131599)"><g><path d="M 4.015625 -3.5 C 4.335938 -3.457031 4.625 -3.457031 4.875 -3.5 C 5.132812 -3.550781 5.359375 -3.640625 5.546875 -3.765625 C 5.734375 -3.898438 5.878906 -4.066406 5.984375 -4.265625 C 6.097656 -4.460938 6.171875 -4.691406 6.203125 -4.953125 C 6.273438 -5.472656 6.171875 -5.898438 5.890625 -6.234375 C 5.609375 -6.578125 5.140625 -6.796875 4.484375 -6.890625 L 3.15625 -7.0625 L 2.6875 -3.671875 Z M 4.59375 -7.765625 C 5.113281 -7.691406 5.554688 -7.566406 5.921875 -7.390625 C 6.296875 -7.210938 6.59375 -6.992188 6.8125 -6.734375 C 7.03125 -6.484375 7.179688 -6.191406 7.265625 -5.859375 C 7.347656 -5.523438 7.363281 -5.171875 7.3125 -4.796875 C 7.257812 -4.410156 7.144531 -4.066406 6.96875 -3.765625 C 6.789062 -3.472656 6.554688 -3.226562 6.265625 -3.03125 C 5.984375 -2.832031 5.644531 -2.691406 5.25 -2.609375 C 4.851562 -2.535156 4.40625 -2.535156 3.90625 -2.609375 L 2.578125 -2.78125 L 2.15625 0.296875 L 1.046875 0.140625 L 2.15625 -8.09375 Z M 4.59375 -7.765625 "/></g></g></g><g fill="#ffffff" fill-opacity="1"><g transform="translate(206.780002, 128.836075)"><g><path d="M 9.578125 -1.375 C 9.390625 -0.78125 9.117188 -0.265625 8.765625 0.171875 C 8.421875 0.617188 8.023438 0.96875 7.578125 1.21875 C 7.128906 1.46875 6.628906 1.613281 6.078125 1.65625 C 5.535156 1.707031 4.976562 1.644531 4.40625 1.46875 C 3.8125 1.289062 3.304688 1.023438 2.890625 0.671875 C 2.484375 0.328125 2.160156 -0.0703125 1.921875 -0.53125 C 1.691406 -1 1.554688 -1.515625 1.515625 -2.078125 C 1.484375 -2.640625 1.5625 -3.21875 1.75 -3.8125 C 1.9375 -4.394531 2.203125 -4.90625 2.546875 -5.34375 C 2.890625 -5.78125 3.289062 -6.128906 3.75 -6.390625 C 4.207031 -6.648438 4.703125 -6.800781 5.234375 -6.84375 C 5.773438 -6.894531 6.34375 -6.832031 6.9375 -6.65625 C 7.507812 -6.476562 8.003906 -6.210938 8.421875 -5.859375 C 8.847656 -5.515625 9.171875 -5.101562 9.390625 -4.625 C 9.617188 -4.15625 9.753906 -3.640625 9.796875 -3.078125 C 9.835938 -2.523438 9.765625 -1.957031 9.578125 -1.375 Z M 8.46875 -1.71875 C 8.625 -2.207031 8.695312 -2.664062 8.6875 -3.09375 C 8.675781 -3.519531 8.585938 -3.898438 8.421875 -4.234375 C 8.265625 -4.578125 8.035156 -4.875 7.734375 -5.125 C 7.429688 -5.382812 7.066406 -5.582031 6.640625 -5.71875 C 6.210938 -5.851562 5.800781 -5.898438 5.40625 -5.859375 C 5.007812 -5.816406 4.648438 -5.703125 4.328125 -5.515625 C 4.003906 -5.328125 3.710938 -5.0625 3.453125 -4.71875 C 3.203125 -4.375 3 -3.957031 2.84375 -3.46875 C 2.6875 -2.976562 2.613281 -2.519531 2.625 -2.09375 C 2.644531 -1.664062 2.734375 -1.273438 2.890625 -0.921875 C 3.054688 -0.578125 3.289062 -0.28125 3.59375 -0.03125 C 3.90625 0.207031 4.273438 0.394531 4.703125 0.53125 C 5.128906 0.664062 5.535156 0.71875 5.921875 0.6875 C 6.316406 0.65625 6.675781 0.539062 7 0.34375 C 7.320312 0.144531 7.609375 -0.125 7.859375 -0.46875 C 8.109375 -0.8125 8.3125 -1.226562 8.46875 -1.71875 Z M 8.46875 -1.71875 "/></g></g></g><g fill="#ffffff" fill-opacity="1"><g transform="translate(219.303049, 133.171089)"><g><path d="M 4.9375 -2.296875 C 5.21875 -2.148438 5.488281 -2.054688 5.75 -2.015625 C 6.007812 -1.972656 6.25 -1.976562 6.46875 -2.03125 C 6.6875 -2.082031 6.878906 -2.175781 7.046875 -2.3125 C 7.210938 -2.457031 7.351562 -2.640625 7.46875 -2.859375 C 7.695312 -3.304688 7.71875 -3.710938 7.53125 -4.078125 C 7.351562 -4.441406 6.972656 -4.769531 6.390625 -5.0625 L 5.296875 -5.625 L 3.875 -2.828125 Z M 6.421875 3.265625 L 5.53125 2.8125 C 5.34375 2.71875 5.242188 2.582031 5.234375 2.40625 L 4.65625 -1.234375 C 4.644531 -1.335938 4.613281 -1.425781 4.5625 -1.5 C 4.507812 -1.570312 4.414062 -1.644531 4.28125 -1.71875 L 3.515625 -2.109375 L 1.9375 0.984375 L 0.953125 0.484375 L 4.71875 -6.921875 L 6.796875 -5.859375 C 7.273438 -5.617188 7.660156 -5.363281 7.953125 -5.09375 C 8.242188 -4.832031 8.453125 -4.554688 8.578125 -4.265625 C 8.710938 -3.972656 8.765625 -3.671875 8.734375 -3.359375 C 8.710938 -3.054688 8.625 -2.742188 8.46875 -2.421875 C 8.332031 -2.160156 8.164062 -1.9375 7.96875 -1.75 C 7.769531 -1.570312 7.546875 -1.429688 7.296875 -1.328125 C 7.046875 -1.222656 6.773438 -1.164062 6.484375 -1.15625 C 6.203125 -1.144531 5.898438 -1.179688 5.578125 -1.265625 C 5.671875 -1.117188 5.734375 -0.953125 5.765625 -0.765625 Z M 6.421875 3.265625 "/></g></g></g><g fill="#ffffff" fill-opacity="1"><g transform="translate(229.223816, 138.579599)"><g><path d="M 9.71875 -2.078125 L 7.53125 -3.640625 L 3.234375 2.328125 L 2.328125 1.671875 L 6.625 -4.296875 L 4.4375 -5.875 L 5 -6.65625 L 10.28125 -2.859375 Z M 9.71875 -2.078125 "/></g></g></g><g fill="#ffffff" fill-opacity="1"><g transform="translate(237.88972, 145.189518)"><g><path d="M 6.71875 -3.765625 L 4.6875 -1.6875 L 7.140625 0.6875 L 6.515625 1.34375 L 4.0625 -1.03125 L 1.5625 1.53125 L 0.765625 0.734375 L 6.5625 -5.21875 L 10.21875 -1.65625 L 9.578125 -1 Z M 6.71875 -3.765625 "/></g></g></g><g fill="#ffffff" fill-opacity="1"><g transform="translate(245.303992, 152.707315)"><g><path d="M 8.53125 4.5625 C 8.03125 4.9375 7.507812 5.195312 6.96875 5.34375 C 6.425781 5.488281 5.894531 5.53125 5.375 5.46875 C 4.863281 5.40625 4.375 5.234375 3.90625 4.953125 C 3.445312 4.671875 3.035156 4.285156 2.671875 3.796875 C 2.304688 3.304688 2.054688 2.796875 1.921875 2.265625 C 1.796875 1.734375 1.773438 1.210938 1.859375 0.703125 C 1.953125 0.191406 2.148438 -0.296875 2.453125 -0.765625 C 2.765625 -1.234375 3.171875 -1.65625 3.671875 -2.03125 C 4.171875 -2.394531 4.6875 -2.648438 5.21875 -2.796875 C 5.75 -2.941406 6.273438 -2.984375 6.796875 -2.921875 C 7.316406 -2.859375 7.804688 -2.6875 8.265625 -2.40625 C 8.734375 -2.125 9.148438 -1.738281 9.515625 -1.25 C 9.878906 -0.757812 10.125 -0.25 10.25 0.28125 C 10.382812 0.8125 10.40625 1.332031 10.3125 1.84375 C 10.21875 2.351562 10.019531 2.84375 9.71875 3.3125 C 9.425781 3.78125 9.03125 4.195312 8.53125 4.5625 Z M 7.84375 3.625 C 8.257812 3.320312 8.585938 3 8.828125 2.65625 C 9.066406 2.3125 9.222656 1.953125 9.296875 1.578125 C 9.367188 1.203125 9.359375 0.820312 9.265625 0.4375 C 9.171875 0.0625 8.988281 -0.304688 8.71875 -0.671875 C 8.457031 -1.035156 8.15625 -1.316406 7.8125 -1.515625 C 7.476562 -1.722656 7.125 -1.84375 6.75 -1.875 C 6.375 -1.914062 5.984375 -1.875 5.578125 -1.75 C 5.171875 -1.625 4.757812 -1.410156 4.34375 -1.109375 C 3.9375 -0.804688 3.609375 -0.472656 3.359375 -0.109375 C 3.117188 0.242188 2.957031 0.601562 2.875 0.96875 C 2.800781 1.34375 2.816406 1.71875 2.921875 2.09375 C 3.023438 2.46875 3.207031 2.835938 3.46875 3.203125 C 3.738281 3.566406 4.035156 3.851562 4.359375 4.0625 C 4.691406 4.269531 5.046875 4.394531 5.421875 4.4375 C 5.804688 4.476562 6.203125 4.425781 6.609375 4.28125 C 7.023438 4.144531 7.4375 3.925781 7.84375 3.625 Z M 7.84375 3.625 "/></g></g></g><g fill="#ffffff" fill-opacity="1"><g transform="translate(252.812337, 163.663428)"><g><path d="M 3.46875 4.71875 L 2.640625 5.140625 L 0.484375 0.9375 L 7.875 -2.859375 L 8.390625 -1.859375 L 1.828125 1.515625 Z M 3.46875 4.71875 "/></g></g></g><g fill="#ffffff" fill-opacity="1"><g transform="translate(257.135904, 172.801808)"><g><path d="M 0.765625 2.046875 L 0.375 1 L 8.171875 -1.875 L 8.5625 -0.828125 Z M 0.765625 2.046875 "/></g></g></g><g fill="#ffffff" fill-opacity="1"><g transform="translate(259.6068, 179.70809)"><g><path d="M 5.890625 7.671875 C 5.273438 7.804688 4.691406 7.828125 4.140625 7.734375 C 3.597656 7.648438 3.101562 7.472656 2.65625 7.203125 C 2.21875 6.929688 1.84375 6.566406 1.53125 6.109375 C 1.21875 5.660156 1 5.140625 0.875 4.546875 C 0.75 3.953125 0.734375 3.390625 0.828125 2.859375 C 0.929688 2.328125 1.128906 1.84375 1.421875 1.40625 C 1.710938 0.976562 2.085938 0.613281 2.546875 0.3125 C 3.015625 0.0078125 3.554688 -0.207031 4.171875 -0.34375 C 4.773438 -0.46875 5.351562 -0.488281 5.90625 -0.40625 C 6.457031 -0.320312 6.957031 -0.144531 7.40625 0.125 C 7.851562 0.394531 8.226562 0.753906 8.53125 1.203125 C 8.84375 1.648438 9.0625 2.171875 9.1875 2.765625 C 9.3125 3.359375 9.328125 3.921875 9.234375 4.453125 C 9.140625 4.992188 8.941406 5.476562 8.640625 5.90625 C 8.347656 6.34375 7.96875 6.710938 7.5 7.015625 C 7.03125 7.328125 6.492188 7.546875 5.890625 7.671875 Z M 5.65625 6.53125 C 6.15625 6.425781 6.585938 6.265625 6.953125 6.046875 C 7.316406 5.835938 7.609375 5.578125 7.828125 5.265625 C 8.046875 4.953125 8.1875 4.597656 8.25 4.203125 C 8.320312 3.816406 8.3125 3.40625 8.21875 2.96875 C 8.125 2.53125 7.96875 2.148438 7.75 1.828125 C 7.53125 1.503906 7.253906 1.25 6.921875 1.0625 C 6.597656 0.875 6.222656 0.753906 5.796875 0.703125 C 5.378906 0.648438 4.921875 0.675781 4.421875 0.78125 C 3.921875 0.882812 3.484375 1.046875 3.109375 1.265625 C 2.742188 1.492188 2.453125 1.757812 2.234375 2.0625 C 2.015625 2.375 1.867188 2.722656 1.796875 3.109375 C 1.734375 3.492188 1.75 3.90625 1.84375 4.34375 C 1.9375 4.78125 2.09375 5.160156 2.3125 5.484375 C 2.53125 5.816406 2.800781 6.078125 3.125 6.265625 C 3.457031 6.460938 3.835938 6.582031 4.265625 6.625 C 4.691406 6.664062 5.15625 6.632812 5.65625 6.53125 Z M 5.65625 6.53125 "/></g></g></g></svg>